<svg id="Layer_6" data-name="Layer 6" xmlns="http://www.w3.org/2000/svg" xmlns:xlink="http://www.w3.org/1999/xlink" viewBox="0 0 184.62 176.29"><defs><style>.cls-1{opacity:0.42;fill:url(#linear-gradient);}.cls-2,.cls-5{fill:#cee5ed;}.cls-2{opacity:0.43;}.cls-3{fill:#f2bf75;}.cls-4{fill:#1e394c;}.cls-6{fill:#87d3f9;}.cls-12,.cls-7{fill:#34648c;}.cls-7{opacity:0.25;}.cls-8{fill:#ea9249;}.cls-9{fill:#f6ba8e;}.cls-10{fill:#b4ccd3;}.cls-11{fill:#0e5c77;}.cls-13{fill:#0f2a3f;opacity:0.26;}.cls-14{fill:#67b8ef;}.cls-15{fill:#aac6ce;}</style><linearGradient id="linear-gradient" x1="130.98" y1="182.84" x2="130.98" y2="-7.18" gradientUnits="userSpaceOnUse"><stop offset="0" stop-color="#fff"/><stop offset="0.13" stop-color="#f8fcfe"/><stop offset="0.31" stop-color="#e6f3fc"/><stop offset="0.52" stop-color="#c7e5f9"/><stop offset="0.75" stop-color="#9cd1f5"/><stop offset="1" stop-color="#67b8ef"/></linearGradient></defs><title>22193732</title><g id="Isolation_Mode" data-name="Isolation Mode"><path class="cls-1" d="M77.85,196H184.12c23.69-16.33,39.17-43.26,39.17-73.74C223.29,72.4,182,24.86,131,24.86s-92.3,47.54-92.3,97.35C38.68,152.69,54.16,179.62,77.85,196Z" transform="translate(-38.68 -23.77)"/><ellipse class="cls-2" cx="90.27" cy="172.45" rx="76.65" ry="3.84"/><polygon class="cls-3" points="79.45 158.13 80.03 161.74 77.32 165.31 70.28 161.98 69.48 158.68 78.16 157.24 79.45 158.13"/><path class="cls-4" d="M112.65,193.63l-.74-.89a.33.33,0,0,0-.51,0l-.72.86a1.5,1.5,0,0,1-1.17.55l-16.24-.05a.88.88,0,0,1,0-1.23c2.35-2.44,15.11-6.77,15.74-7.12s4.59,2.63,9.74-.24a55,55,0,0,1,1.06,6.68,1.86,1.86,0,0,1-1.85,2l-4.12,0A1.47,1.47,0,0,1,112.65,193.63Z" transform="translate(-38.68 -23.77)"/><polygon class="cls-3" points="105.49 158.27 106.06 161.89 103.35 165.45 96.31 162.13 95.51 158.82 104.2 157.39 105.49 158.27"/><path class="cls-4" d="M138.68,193.77l-.73-.88a.34.34,0,0,0-.52,0l-.72.86a1.48,1.48,0,0,1-1.16.55l-16.25-.06a.88.88,0,0,1,0-1.23c2.34-2.43,15.1-6.76,15.73-7.12s4.59,2.63,9.75-.24a56.1,56.1,0,0,1,1,6.69,1.85,1.85,0,0,1-1.85,2h-4.12A1.48,1.48,0,0,1,138.68,193.77Z" transform="translate(-38.68 -23.77)"/><polygon class="cls-5" points="68.03 41.24 63.08 60.12 49.62 51.13 43.53 55.97 61.1 72.42 73.74 60.69 68.03 41.24"/><path class="cls-3" d="M88.28,74.9l-3.92-7.73a1.61,1.61,0,0,0-2.26-.64h0a5.87,5.87,0,0,0-2.76,6.28c.53,2.47,1.42,5.39,2.87,6.92Z" transform="translate(-38.68 -23.77)"/><path class="cls-4" d="M83.43,60l-4.29-.35c-.62-.05-1,.35-.88.89l3,12.07a1.63,1.63,0,0,0,1.38,1.08L87,74c1,.08,1.57,1.85.88-.89l-3-12.07A1.63,1.63,0,0,0,83.43,60Z" transform="translate(-38.68 -23.77)"/><path class="cls-3" d="M88.29,74.93l.9-2.86a1.64,1.64,0,0,0-.51-2.1l-1.5-1a1,1,0,0,0-1.4.17h0a1.05,1.05,0,0,0,.15,1.54l.68.54.7.52-1.66,2.52Z" transform="translate(-38.68 -23.77)"/><path class="cls-4" d="M145,182.88c0-4.22-4.9-74.42-4.9-74.42s-9.89-9.63-15.28-8.61c-5.38-1-17.62,6.12-17.62,6.12s.25,72.69.25,76.91h11.67s.08-33.47,4.62-57.64c.2-1.08,1.86-1.19,2.06-.11,4.55,24.17,7.54,57.75,7.54,57.75Z" transform="translate(-38.68 -23.77)"/><path class="cls-5" d="M125.08,53.6s13.76,3.37,15.67,5.57,9.06,15.89,8.93,20.5c-.15,5.4-9.41,16.93-9.23,16.25v16.27s-21.08,6.59-33.82-1.47c0,0-1.46-41.77.29-46.43.54-1.43,7.47-7.47,9.52-8.2S125.08,53.6,125.08,53.6Z" transform="translate(-38.68 -23.77)"/><path class="cls-5" d="M149.68,79.67c-.13,4.81-7.51,14.5-9,16.06h0l-.24.18-4.65,4.18L130.2,95s10.33-7.35,8.9-16.8c-1-6.65-7.91-18.56-7.91-18.56a25.5,25.5,0,0,1-6.49-6l.38-.1s13.76,3.37,15.67,5.56S149.81,75.06,149.68,79.67Z" transform="translate(-38.68 -23.77)"/><rect class="cls-6" x="58.69" y="52.36" width="55.35" height="30.62" rx="4.55"/><path class="cls-7" d="M147.75,76.13h-5.88a5,5,0,0,1,5,5v20.67a5,5,0,0,1-5,5h5.88a5,5,0,0,0,5-5V81.1A5,5,0,0,0,147.75,76.13Z" transform="translate(-38.68 -23.77)"/><rect class="cls-4" x="58.69" y="62.26" width="55.35" height="7.11"/><rect class="cls-4" x="63.94" y="74.16" width="10.9" height="1.51"/><rect class="cls-4" x="63.94" y="77.53" width="5.27" height="1.51"/><path class="cls-8" d="M125.81,46v9.77s-3.19,9.78-10.54,2.09l-.66-7.8Z" transform="translate(-38.68 -23.77)"/><path class="cls-4" d="M106.7,38.3s-12.45-2.64-4.76-13.25c0,0,1.32,5.63,8,.8,3.44-2.46,8.53-3.08,14.21,0,6.08,3.3,8.2,13.4,3,18.67L117,42.47Z" transform="translate(-38.68 -23.77)"/><path class="cls-3" d="M106.7,38.3s-1.47,16.91,9.74,15.81c8.75-.85,8.42-7.46,8.42-7.46s2.85-.59,3-3.15-.66-4.69-3.22-3c0,0-4.54-2.92-4.83-5A28.6,28.6,0,0,1,106.7,38.3Z" transform="translate(-38.68 -23.77)"/><path class="cls-9" d="M121.47,111a1.8,1.8,0,0,0,.45,2.48l1.9,1.54a1.79,1.79,0,0,0,2.52-.07l6-7.42-5.71-4.39-6.2,4.38a.77.77,0,0,0,0,1.26,1.42,1.42,0,0,0,1,.21,2.5,2.5,0,0,0,1.64-.84Z" transform="translate(-38.68 -23.77)"/><path class="cls-5" d="M125.53,103.19l6.65,5.36s18.09-20,18.17-27.66c0-4.3-5.19-14.66-8.46-20.25H130.17s8.36,12.59,10.89,18.63a3.69,3.69,0,0,1-.37,3.48C137.64,87.2,128.61,100.22,125.53,103.19Z" transform="translate(-38.68 -23.77)"/><path class="cls-10" d="M141.89,60.64s6.68,16.56,6.65,19.89c-.06,6.58-14.52,22.25-18.25,26.5l1.89,1.52s18.09-20,18.17-27.66C150.39,76.59,145.16,66.23,141.89,60.64Z" transform="translate(-38.68 -23.77)"/><path class="cls-10" d="M139.32,76l-.36.13H108.74l-.42-.13,28.41-.72S133,65,133.62,65.31,139.32,76,139.32,76Z" transform="translate(-38.68 -23.77)"/><path class="cls-8" d="M111.62,51.65a6.68,6.68,0,0,1-1.36-3.52,5.06,5.06,0,0,1-1.5-.17c-.17-.17.41-4.84.3-5.66-.07-.58-.37-2.84-.54-4.06-.77,0-1,.07-1.82.06,0,0-1.47,16.91,9.74,15.81C113.71,54.16,112.82,52.91,111.62,51.65Z" transform="translate(-38.68 -23.77)"/><path class="cls-11" d="M88.59,44.12A9.51,9.51,0,1,0,80.66,55.2l2,2.25L83,54.53A9.51,9.51,0,0,0,88.59,44.12ZM74.38,46.68a1.17,1.17,0,1,1,1.17-1.17A1.17,1.17,0,0,1,74.38,46.68Zm4.72,0a1.17,1.17,0,1,1,1.17-1.17A1.17,1.17,0,0,1,79.1,46.68Zm4.66,0a1.17,1.17,0,1,1,1.17-1.17A1.17,1.17,0,0,1,83.76,46.68Z" transform="translate(-38.68 -23.77)"/><path class="cls-12" d="M200.13,147.24c3.44-3.65,4.29-8.44,1.9-10.7s-7.12-1.13-10.57,2.52-5.89,10.13-3.5,12.39S196.69,150.89,200.13,147.24Z" transform="translate(-38.68 -23.77)"/><path class="cls-13" d="M202,136.54a4.45,4.45,0,0,0-2.79-1.15c.11.09.23.17.33.27,2.39,2.26,1.54,7.05-1.9,10.7-2.59,2.74-6.82,5-9.77,5l.06.07c2.4,2.26,8.73-.56,12.17-4.21S204.42,138.8,202,136.54Z" transform="translate(-38.68 -23.77)"/><path class="cls-14" d="M182.62,133.19c.47-4.92-1.62-9.14-4.66-9.42s-5.87,3.47-6.33,8.39,1.41,11.43,4.45,11.72S182.16,138.11,182.62,133.19Z" transform="translate(-38.68 -23.77)"/><path class="cls-7" d="M178,123.77a3.49,3.49,0,0,0-1.66.24c2.49,1,4.09,4.81,3.68,9.18-.38,4.08-2.54,8.91-5,10.3a2.61,2.61,0,0,0,1.09.39c3,.28,6.08-5.77,6.54-10.69S181,124.05,178,123.77Z" transform="translate(-38.68 -23.77)"/><path class="cls-12" d="M167.84,129.41c-2.1-4.14-5.88-6.45-8.44-5.15s-2.92,5.71-.82,9.86,6.87,8.37,9.43,7.07S170,133.56,167.84,129.41Z" transform="translate(-38.68 -23.77)"/><path class="cls-13" d="M167.84,129.41c-2.1-4.14-5.88-6.45-8.44-5.15a4,4,0,0,0-2,2.67,3.36,3.36,0,0,1,.78-.56c2.56-1.3,6.34,1,8.44,5.15,1.48,2.91,2.22,6.9,1.64,9.46C170.5,139.34,169.86,133.38,167.84,129.41Z" transform="translate(-38.68 -23.77)"/><path class="cls-14" d="M163.78,146.73c-4.06-1.81-8.2-1.38-9.25,1s1.38,5.72,5.44,7.54,10.09,2.23,11.14-.12S167.84,148.55,163.78,146.73Z" transform="translate(-38.68 -23.77)"/><path class="cls-7" d="M163.78,146.73c-4.06-1.81-8.2-1.38-9.25,1a3,3,0,0,0-.19,1.78c1.12-2.27,5.2-2.66,9.2-.87,3.27,1.46,6.7,4.48,7.37,6.83a1.32,1.32,0,0,0,.2-.32C172.16,152.77,167.84,148.55,163.78,146.73Z" transform="translate(-38.68 -23.77)"/><path class="cls-12" d="M201.24,161.06c4-1.45,6.57-4.77,5.62-7.43s-5-3.64-9.05-2.2-8.45,5.44-7.5,8.1S197.19,162.5,201.24,161.06Z" transform="translate(-38.68 -23.77)"/><path class="cls-13" d="M206.86,153.63a4.14,4.14,0,0,0-2.68-2.43,3.48,3.48,0,0,1,1,1.5c.95,2.65-1.57,6-5.62,7.42a14.38,14.38,0,0,1-8.67.33c1.85,1.79,6.79,1.86,10.31.61C205.29,159.61,207.81,156.29,206.86,153.63Z" transform="translate(-38.68 -23.77)"/><path class="cls-4" d="M180.17,175.66a45.92,45.92,0,0,1,14.4-30c.32-.31-.17-.8-.5-.49a46.72,46.72,0,0,0-14.61,30.45c0,.45.67.45.71,0Z" transform="translate(-38.68 -23.77)"/><path class="cls-4" d="M177.61,174a61.85,61.85,0,0,0-12.84-39.15c-.27-.35-.88,0-.61.36A61.2,61.2,0,0,1,176.9,174a.36.36,0,0,0,.71,0Z" transform="translate(-38.68 -23.77)"/><path class="cls-4" d="M174.64,153.37c1.91-6.1,2.4-12.59,2.64-19a.36.36,0,0,0-.71,0c-.23,6.3-.71,12.71-2.61,18.77-.14.43.54.61.68.18Z" transform="translate(-38.68 -23.77)"/><path class="cls-4" d="M163.71,152.2a63.61,63.61,0,0,0,11.06,5.16c.43.16.61-.52.19-.68a62,62,0,0,1-10.89-5.09c-.39-.24-.74.37-.36.61Z" transform="translate(-38.68 -23.77)"/><path class="cls-4" d="M193.66,157.67a76.47,76.47,0,0,1-10.4,3.48.35.35,0,0,0,.18.68,76.14,76.14,0,0,0,10.41-3.48c.41-.17.23-.85-.19-.68Z" transform="translate(-38.68 -23.77)"/><path class="cls-5" d="M165.82,172.39,168,191.73A4.77,4.77,0,0,0,172.7,196H185a4.77,4.77,0,0,0,4.74-4.25l2.14-19.34a1.78,1.78,0,0,0-1.77-2H167.59A1.78,1.78,0,0,0,165.82,172.39Z" transform="translate(-38.68 -23.77)"/><path class="cls-15" d="M190.14,170.42h-7.82a1.78,1.78,0,0,1,1.77,2L182,191.73a4.77,4.77,0,0,1-4.74,4.25H185a4.77,4.77,0,0,0,4.74-4.25l2.14-19.34A1.78,1.78,0,0,0,190.14,170.42Z" transform="translate(-38.68 -23.77)"/></g></svg>